<mxfile host="Electron" modified="2023-12-29T03:45:05.115Z" agent="Mozilla/5.0 (Windows NT 10.0; Win64; x64) AppleWebKit/537.36 (KHTML, like Gecko) draw.io/21.2.8 Chrome/112.0.5615.165 Electron/24.2.0 Safari/537.36" etag="5_y-jYyKJpg0DXGiodAz" version="21.2.8" type="device">
  <diagram name="Page-1" id="Dp2LCQyxZGAmDatRVv9P">
    <mxGraphModel dx="1931" dy="666" grid="1" gridSize="10" guides="1" tooltips="1" connect="1" arrows="1" fold="1" page="1" pageScale="1" pageWidth="827" pageHeight="1169" math="0" shadow="0">
      <root>
        <mxCell id="0" />
        <mxCell id="1" parent="0" />
        <mxCell id="cPJQanP_NMV2ZF2t2-Fl-1" value="&lt;font size=&quot;1&quot; style=&quot;&quot; color=&quot;#ffffff&quot; face=&quot;Verdana&quot;&gt;&lt;b style=&quot;font-size: 14px;&quot;&gt;6&lt;/b&gt;&lt;/font&gt;" style="ellipse;whiteSpace=wrap;html=1;aspect=fixed;fillColor=#e51400;fontColor=#ffffff;strokeColor=#B20000;" vertex="1" parent="1">
          <mxGeometry x="-190" y="190" width="40" height="40" as="geometry" />
        </mxCell>
        <mxCell id="cPJQanP_NMV2ZF2t2-Fl-2" value="&lt;font size=&quot;1&quot; style=&quot;&quot; color=&quot;#ffffff&quot; face=&quot;Verdana&quot;&gt;&lt;b style=&quot;font-size: 14px;&quot;&gt;5&lt;/b&gt;&lt;/font&gt;" style="ellipse;whiteSpace=wrap;html=1;aspect=fixed;fillColor=#000000;" vertex="1" parent="1">
          <mxGeometry x="-260" y="261" width="40" height="40" as="geometry" />
        </mxCell>
        <mxCell id="cPJQanP_NMV2ZF2t2-Fl-3" value="" style="endArrow=classic;html=1;rounded=0;exitX=0;exitY=1;exitDx=0;exitDy=0;entryX=1;entryY=0;entryDx=0;entryDy=0;" edge="1" parent="1" source="cPJQanP_NMV2ZF2t2-Fl-1" target="cPJQanP_NMV2ZF2t2-Fl-2">
          <mxGeometry width="50" height="50" relative="1" as="geometry">
            <mxPoint x="59" y="330" as="sourcePoint" />
            <mxPoint x="-246.85786437626894" y="265.85786437626894" as="targetPoint" />
          </mxGeometry>
        </mxCell>
        <mxCell id="cPJQanP_NMV2ZF2t2-Fl-4" value="&lt;font face=&quot;Verdana&quot; color=&quot;#ffffff&quot;&gt;&lt;span style=&quot;font-size: 14px;&quot;&gt;&lt;b&gt;9&lt;/b&gt;&lt;/span&gt;&lt;/font&gt;" style="ellipse;whiteSpace=wrap;html=1;aspect=fixed;fillColor=#090706;fontColor=#ffffff;strokeColor=#000000;" vertex="1" parent="1">
          <mxGeometry x="-111" y="261" width="40" height="40" as="geometry" />
        </mxCell>
        <mxCell id="cPJQanP_NMV2ZF2t2-Fl-5" value="" style="endArrow=classic;html=1;rounded=0;exitX=1;exitY=1;exitDx=0;exitDy=0;" edge="1" parent="1" source="cPJQanP_NMV2ZF2t2-Fl-1" target="cPJQanP_NMV2ZF2t2-Fl-4">
          <mxGeometry width="50" height="50" relative="1" as="geometry">
            <mxPoint x="59" y="330" as="sourcePoint" />
            <mxPoint x="-91.59999999999991" y="271" as="targetPoint" />
          </mxGeometry>
        </mxCell>
        <mxCell id="cPJQanP_NMV2ZF2t2-Fl-10" value="" style="endArrow=classic;html=1;rounded=0;dashed=1;strokeWidth=2;" edge="1" parent="1">
          <mxGeometry width="50" height="50" relative="1" as="geometry">
            <mxPoint x="-40" y="280" as="sourcePoint" />
            <mxPoint x="40" y="280" as="targetPoint" />
          </mxGeometry>
        </mxCell>
        <mxCell id="cPJQanP_NMV2ZF2t2-Fl-11" value="&lt;font style=&quot;font-size: 16px;&quot;&gt;变色&lt;/font&gt;" style="text;html=1;align=center;verticalAlign=middle;resizable=0;points=[];autosize=1;strokeColor=none;fillColor=none;" vertex="1" parent="1">
          <mxGeometry x="-35" y="250" width="60" height="30" as="geometry" />
        </mxCell>
        <mxCell id="cPJQanP_NMV2ZF2t2-Fl-42" value="" style="endArrow=classic;html=1;rounded=0;exitX=0;exitY=1;exitDx=0;exitDy=0;entryX=1;entryY=0;entryDx=0;entryDy=0;" edge="1" parent="1" source="cPJQanP_NMV2ZF2t2-Fl-4" target="cPJQanP_NMV2ZF2t2-Fl-43">
          <mxGeometry width="50" height="50" relative="1" as="geometry">
            <mxPoint x="199" y="420" as="sourcePoint" />
            <mxPoint x="-141" y="330" as="targetPoint" />
          </mxGeometry>
        </mxCell>
        <mxCell id="cPJQanP_NMV2ZF2t2-Fl-43" value="&lt;font size=&quot;1&quot; style=&quot;&quot; color=&quot;#ffffff&quot; face=&quot;Verdana&quot;&gt;&lt;b style=&quot;font-size: 14px;&quot;&gt;7&lt;/b&gt;&lt;/font&gt;" style="ellipse;whiteSpace=wrap;html=1;aspect=fixed;fillColor=#e51400;fontColor=#ffffff;strokeColor=#B20000;" vertex="1" parent="1">
          <mxGeometry x="-181" y="320" width="40" height="40" as="geometry" />
        </mxCell>
        <mxCell id="cPJQanP_NMV2ZF2t2-Fl-45" value="&lt;font size=&quot;1&quot; style=&quot;&quot; color=&quot;#ffffff&quot; face=&quot;Verdana&quot;&gt;&lt;b style=&quot;font-size: 14px;&quot;&gt;6&lt;/b&gt;&lt;/font&gt;" style="ellipse;whiteSpace=wrap;html=1;aspect=fixed;fillColor=#e51400;fontColor=#ffffff;strokeColor=#B20000;" vertex="1" parent="1">
          <mxGeometry x="140" y="190" width="40" height="40" as="geometry" />
        </mxCell>
        <mxCell id="cPJQanP_NMV2ZF2t2-Fl-46" value="&lt;font size=&quot;1&quot; style=&quot;&quot; color=&quot;#ffffff&quot; face=&quot;Verdana&quot;&gt;&lt;b style=&quot;font-size: 14px;&quot;&gt;5&lt;/b&gt;&lt;/font&gt;" style="ellipse;whiteSpace=wrap;html=1;aspect=fixed;fillColor=#000000;" vertex="1" parent="1">
          <mxGeometry x="70" y="261" width="40" height="40" as="geometry" />
        </mxCell>
        <mxCell id="cPJQanP_NMV2ZF2t2-Fl-47" value="" style="endArrow=classic;html=1;rounded=0;exitX=0;exitY=1;exitDx=0;exitDy=0;entryX=1;entryY=0;entryDx=0;entryDy=0;" edge="1" parent="1" source="cPJQanP_NMV2ZF2t2-Fl-45" target="cPJQanP_NMV2ZF2t2-Fl-46">
          <mxGeometry width="50" height="50" relative="1" as="geometry">
            <mxPoint x="389" y="330" as="sourcePoint" />
            <mxPoint x="83.14213562373106" y="265.85786437626894" as="targetPoint" />
          </mxGeometry>
        </mxCell>
        <mxCell id="cPJQanP_NMV2ZF2t2-Fl-48" value="&lt;font face=&quot;Verdana&quot; color=&quot;#ffffff&quot;&gt;&lt;span style=&quot;font-size: 14px;&quot;&gt;&lt;b&gt;9&lt;/b&gt;&lt;/span&gt;&lt;/font&gt;" style="ellipse;whiteSpace=wrap;html=1;aspect=fixed;fillColor=#e51400;fontColor=#ffffff;strokeColor=#B20000;" vertex="1" parent="1">
          <mxGeometry x="219" y="261" width="40" height="40" as="geometry" />
        </mxCell>
        <mxCell id="cPJQanP_NMV2ZF2t2-Fl-49" value="" style="endArrow=classic;html=1;rounded=0;exitX=1;exitY=1;exitDx=0;exitDy=0;" edge="1" parent="1" source="cPJQanP_NMV2ZF2t2-Fl-45" target="cPJQanP_NMV2ZF2t2-Fl-48">
          <mxGeometry width="50" height="50" relative="1" as="geometry">
            <mxPoint x="389" y="330" as="sourcePoint" />
            <mxPoint x="238.4000000000001" y="271" as="targetPoint" />
          </mxGeometry>
        </mxCell>
        <mxCell id="cPJQanP_NMV2ZF2t2-Fl-50" value="" style="endArrow=classic;html=1;rounded=0;exitX=0;exitY=1;exitDx=0;exitDy=0;entryX=1;entryY=0;entryDx=0;entryDy=0;" edge="1" parent="1" source="cPJQanP_NMV2ZF2t2-Fl-48" target="cPJQanP_NMV2ZF2t2-Fl-51">
          <mxGeometry width="50" height="50" relative="1" as="geometry">
            <mxPoint x="529" y="420" as="sourcePoint" />
            <mxPoint x="189" y="330" as="targetPoint" />
          </mxGeometry>
        </mxCell>
        <mxCell id="cPJQanP_NMV2ZF2t2-Fl-51" value="&lt;font size=&quot;1&quot; style=&quot;&quot; color=&quot;#ffffff&quot; face=&quot;Verdana&quot;&gt;&lt;b style=&quot;font-size: 14px;&quot;&gt;7&lt;/b&gt;&lt;/font&gt;" style="ellipse;whiteSpace=wrap;html=1;aspect=fixed;fillColor=#000000;fontColor=#ffffff;strokeColor=#000000;" vertex="1" parent="1">
          <mxGeometry x="149" y="320" width="40" height="40" as="geometry" />
        </mxCell>
        <mxCell id="cPJQanP_NMV2ZF2t2-Fl-52" value="&lt;font face=&quot;Verdana&quot; color=&quot;#ffffff&quot;&gt;&lt;span style=&quot;font-size: 14px;&quot;&gt;&lt;b&gt;9&lt;/b&gt;&lt;/span&gt;&lt;/font&gt;" style="ellipse;whiteSpace=wrap;html=1;aspect=fixed;fillColor=#e51400;fontColor=#ffffff;strokeColor=#B20000;" vertex="1" parent="1">
          <mxGeometry x="596" y="330" width="40" height="40" as="geometry" />
        </mxCell>
        <mxCell id="cPJQanP_NMV2ZF2t2-Fl-53" value="&lt;font size=&quot;1&quot; style=&quot;&quot; color=&quot;#ffffff&quot; face=&quot;Verdana&quot;&gt;&lt;b style=&quot;font-size: 14px;&quot;&gt;7&lt;/b&gt;&lt;/font&gt;" style="ellipse;whiteSpace=wrap;html=1;aspect=fixed;fillColor=#000000;fontColor=#ffffff;strokeColor=#000000;" vertex="1" parent="1">
          <mxGeometry x="537" y="261" width="40" height="40" as="geometry" />
        </mxCell>
        <mxCell id="cPJQanP_NMV2ZF2t2-Fl-54" value="" style="endArrow=classic;html=1;rounded=0;exitX=1;exitY=1;exitDx=0;exitDy=0;entryX=0.225;entryY=0;entryDx=0;entryDy=0;entryPerimeter=0;" edge="1" parent="1" source="cPJQanP_NMV2ZF2t2-Fl-53" target="cPJQanP_NMV2ZF2t2-Fl-52">
          <mxGeometry width="50" height="50" relative="1" as="geometry">
            <mxPoint x="677" y="179.5" as="sourcePoint" />
            <mxPoint x="727" y="129.5" as="targetPoint" />
          </mxGeometry>
        </mxCell>
        <mxCell id="cPJQanP_NMV2ZF2t2-Fl-55" value="&lt;font size=&quot;1&quot; style=&quot;&quot; color=&quot;#ffffff&quot; face=&quot;Verdana&quot;&gt;&lt;b style=&quot;font-size: 14px;&quot;&gt;6&lt;/b&gt;&lt;/font&gt;" style="ellipse;whiteSpace=wrap;html=1;aspect=fixed;fillColor=#e51400;fontColor=#ffffff;strokeColor=#B20000;" vertex="1" parent="1">
          <mxGeometry x="467" y="189.5" width="40" height="40" as="geometry" />
        </mxCell>
        <mxCell id="cPJQanP_NMV2ZF2t2-Fl-56" value="&lt;font size=&quot;1&quot; style=&quot;&quot; color=&quot;#ffffff&quot; face=&quot;Verdana&quot;&gt;&lt;b style=&quot;font-size: 14px;&quot;&gt;5&lt;/b&gt;&lt;/font&gt;" style="ellipse;whiteSpace=wrap;html=1;aspect=fixed;fillColor=#000000;" vertex="1" parent="1">
          <mxGeometry x="397" y="260.5" width="40" height="40" as="geometry" />
        </mxCell>
        <mxCell id="cPJQanP_NMV2ZF2t2-Fl-57" value="" style="endArrow=classic;html=1;rounded=0;exitX=0;exitY=1;exitDx=0;exitDy=0;entryX=1;entryY=0;entryDx=0;entryDy=0;" edge="1" parent="1" source="cPJQanP_NMV2ZF2t2-Fl-55" target="cPJQanP_NMV2ZF2t2-Fl-56">
          <mxGeometry width="50" height="50" relative="1" as="geometry">
            <mxPoint x="716" y="329.5" as="sourcePoint" />
            <mxPoint x="410.14213562373106" y="265.35786437626894" as="targetPoint" />
          </mxGeometry>
        </mxCell>
        <mxCell id="cPJQanP_NMV2ZF2t2-Fl-58" value="" style="endArrow=classic;html=1;rounded=0;exitX=1;exitY=1;exitDx=0;exitDy=0;entryX=0;entryY=0;entryDx=0;entryDy=0;" edge="1" parent="1" source="cPJQanP_NMV2ZF2t2-Fl-55" target="cPJQanP_NMV2ZF2t2-Fl-53">
          <mxGeometry width="50" height="50" relative="1" as="geometry">
            <mxPoint x="561" y="283.5" as="sourcePoint" />
            <mxPoint x="596" y="310.5" as="targetPoint" />
          </mxGeometry>
        </mxCell>
        <mxCell id="cPJQanP_NMV2ZF2t2-Fl-59" value="" style="endArrow=classic;html=1;rounded=0;dashed=1;strokeWidth=2;" edge="1" parent="1">
          <mxGeometry width="50" height="50" relative="1" as="geometry">
            <mxPoint x="-40" y="280" as="sourcePoint" />
            <mxPoint x="40" y="280" as="targetPoint" />
          </mxGeometry>
        </mxCell>
        <mxCell id="cPJQanP_NMV2ZF2t2-Fl-60" value="&lt;font style=&quot;font-size: 16px;&quot;&gt;变色&lt;/font&gt;" style="text;html=1;align=center;verticalAlign=middle;resizable=0;points=[];autosize=1;strokeColor=none;fillColor=none;" vertex="1" parent="1">
          <mxGeometry x="-35" y="250" width="60" height="30" as="geometry" />
        </mxCell>
        <mxCell id="cPJQanP_NMV2ZF2t2-Fl-61" value="" style="endArrow=classic;html=1;rounded=0;dashed=1;strokeWidth=2;" edge="1" parent="1">
          <mxGeometry width="50" height="50" relative="1" as="geometry">
            <mxPoint x="290" y="280" as="sourcePoint" />
            <mxPoint x="370" y="280" as="targetPoint" />
          </mxGeometry>
        </mxCell>
        <mxCell id="cPJQanP_NMV2ZF2t2-Fl-62" value="&lt;font style=&quot;font-size: 16px;&quot;&gt;sib 右旋&lt;/font&gt;" style="text;html=1;align=center;verticalAlign=middle;resizable=0;points=[];autosize=1;strokeColor=none;fillColor=none;" vertex="1" parent="1">
          <mxGeometry x="285" y="250" width="80" height="30" as="geometry" />
        </mxCell>
        <mxCell id="cPJQanP_NMV2ZF2t2-Fl-63" value="&lt;font size=&quot;1&quot; style=&quot;&quot; color=&quot;#ffffff&quot; face=&quot;Verdana&quot;&gt;&lt;b style=&quot;font-size: 14px;&quot;&gt;6&lt;/b&gt;&lt;/font&gt;" style="ellipse;whiteSpace=wrap;html=1;aspect=fixed;fillColor=#e51400;fontColor=#ffffff;strokeColor=#B20000;" vertex="1" parent="1">
          <mxGeometry x="-191" y="410" width="40" height="40" as="geometry" />
        </mxCell>
        <mxCell id="cPJQanP_NMV2ZF2t2-Fl-64" value="&lt;font size=&quot;1&quot; style=&quot;&quot; color=&quot;#ffffff&quot; face=&quot;Verdana&quot;&gt;&lt;b style=&quot;font-size: 14px;&quot;&gt;5&lt;/b&gt;&lt;/font&gt;" style="ellipse;whiteSpace=wrap;html=1;aspect=fixed;fillColor=#000000;" vertex="1" parent="1">
          <mxGeometry x="-261" y="481" width="40" height="40" as="geometry" />
        </mxCell>
        <mxCell id="cPJQanP_NMV2ZF2t2-Fl-65" value="" style="endArrow=classic;html=1;rounded=0;exitX=0;exitY=1;exitDx=0;exitDy=0;entryX=1;entryY=0;entryDx=0;entryDy=0;" edge="1" parent="1" source="cPJQanP_NMV2ZF2t2-Fl-63" target="cPJQanP_NMV2ZF2t2-Fl-64">
          <mxGeometry width="50" height="50" relative="1" as="geometry">
            <mxPoint x="58" y="550" as="sourcePoint" />
            <mxPoint x="-247.85786437626894" y="485.85786437626894" as="targetPoint" />
          </mxGeometry>
        </mxCell>
        <mxCell id="cPJQanP_NMV2ZF2t2-Fl-66" value="&lt;font face=&quot;Verdana&quot; color=&quot;#ffffff&quot;&gt;&lt;span style=&quot;font-size: 14px;&quot;&gt;&lt;b&gt;9&lt;/b&gt;&lt;/span&gt;&lt;/font&gt;" style="ellipse;whiteSpace=wrap;html=1;aspect=fixed;fillColor=#090706;fontColor=#ffffff;strokeColor=#000000;" vertex="1" parent="1">
          <mxGeometry x="-112" y="481" width="40" height="40" as="geometry" />
        </mxCell>
        <mxCell id="cPJQanP_NMV2ZF2t2-Fl-67" value="" style="endArrow=classic;html=1;rounded=0;exitX=1;exitY=1;exitDx=0;exitDy=0;" edge="1" parent="1" source="cPJQanP_NMV2ZF2t2-Fl-63" target="cPJQanP_NMV2ZF2t2-Fl-66">
          <mxGeometry width="50" height="50" relative="1" as="geometry">
            <mxPoint x="58" y="550" as="sourcePoint" />
            <mxPoint x="-92.59999999999991" y="491" as="targetPoint" />
          </mxGeometry>
        </mxCell>
        <mxCell id="cPJQanP_NMV2ZF2t2-Fl-68" value="" style="endArrow=classic;html=1;rounded=0;dashed=1;strokeWidth=2;" edge="1" parent="1">
          <mxGeometry width="50" height="50" relative="1" as="geometry">
            <mxPoint x="11" y="500" as="sourcePoint" />
            <mxPoint x="91" y="500" as="targetPoint" />
          </mxGeometry>
        </mxCell>
        <mxCell id="cPJQanP_NMV2ZF2t2-Fl-69" value="&lt;font style=&quot;font-size: 16px;&quot;&gt;变色&lt;/font&gt;" style="text;html=1;align=center;verticalAlign=middle;resizable=0;points=[];autosize=1;strokeColor=none;fillColor=none;" vertex="1" parent="1">
          <mxGeometry x="16" y="470" width="60" height="30" as="geometry" />
        </mxCell>
        <mxCell id="cPJQanP_NMV2ZF2t2-Fl-70" value="" style="endArrow=classic;html=1;rounded=0;exitX=1;exitY=1;exitDx=0;exitDy=0;entryX=0;entryY=0;entryDx=0;entryDy=0;" edge="1" parent="1" source="cPJQanP_NMV2ZF2t2-Fl-66" target="cPJQanP_NMV2ZF2t2-Fl-71">
          <mxGeometry width="50" height="50" relative="1" as="geometry">
            <mxPoint x="198" y="640" as="sourcePoint" />
            <mxPoint x="-45.142135623731065" y="570.8578643762689" as="targetPoint" />
          </mxGeometry>
        </mxCell>
        <mxCell id="cPJQanP_NMV2ZF2t2-Fl-71" value="&lt;font size=&quot;1&quot; style=&quot;&quot; color=&quot;#ffffff&quot; face=&quot;Verdana&quot;&gt;&lt;b style=&quot;font-size: 14px;&quot;&gt;10&lt;/b&gt;&lt;/font&gt;" style="ellipse;whiteSpace=wrap;html=1;aspect=fixed;fillColor=#e51400;fontColor=#ffffff;strokeColor=#B20000;" vertex="1" parent="1">
          <mxGeometry x="-40" y="550" width="40" height="40" as="geometry" />
        </mxCell>
        <mxCell id="cPJQanP_NMV2ZF2t2-Fl-72" value="&lt;font size=&quot;1&quot; style=&quot;&quot; color=&quot;#ffffff&quot; face=&quot;Verdana&quot;&gt;&lt;b style=&quot;font-size: 14px;&quot;&gt;6&lt;/b&gt;&lt;/font&gt;" style="ellipse;whiteSpace=wrap;html=1;aspect=fixed;fillColor=#000000;fontColor=#ffffff;strokeColor=#130b0b;" vertex="1" parent="1">
          <mxGeometry x="191" y="410" width="40" height="40" as="geometry" />
        </mxCell>
        <mxCell id="cPJQanP_NMV2ZF2t2-Fl-73" value="&lt;font size=&quot;1&quot; style=&quot;&quot; color=&quot;#ffffff&quot; face=&quot;Verdana&quot;&gt;&lt;b style=&quot;font-size: 14px;&quot;&gt;5&lt;/b&gt;&lt;/font&gt;" style="ellipse;whiteSpace=wrap;html=1;aspect=fixed;fillColor=#000000;" vertex="1" parent="1">
          <mxGeometry x="121" y="481" width="40" height="40" as="geometry" />
        </mxCell>
        <mxCell id="cPJQanP_NMV2ZF2t2-Fl-74" value="" style="endArrow=classic;html=1;rounded=0;exitX=0;exitY=1;exitDx=0;exitDy=0;entryX=1;entryY=0;entryDx=0;entryDy=0;" edge="1" parent="1" source="cPJQanP_NMV2ZF2t2-Fl-72" target="cPJQanP_NMV2ZF2t2-Fl-73">
          <mxGeometry width="50" height="50" relative="1" as="geometry">
            <mxPoint x="440" y="550" as="sourcePoint" />
            <mxPoint x="134.14213562373106" y="485.85786437626894" as="targetPoint" />
          </mxGeometry>
        </mxCell>
        <mxCell id="cPJQanP_NMV2ZF2t2-Fl-75" value="&lt;font face=&quot;Verdana&quot; color=&quot;#ffffff&quot;&gt;&lt;span style=&quot;font-size: 14px;&quot;&gt;&lt;b&gt;9&lt;/b&gt;&lt;/span&gt;&lt;/font&gt;" style="ellipse;whiteSpace=wrap;html=1;aspect=fixed;fillColor=#e51400;fontColor=#ffffff;strokeColor=#B20000;" vertex="1" parent="1">
          <mxGeometry x="270" y="481" width="40" height="40" as="geometry" />
        </mxCell>
        <mxCell id="cPJQanP_NMV2ZF2t2-Fl-76" value="" style="endArrow=classic;html=1;rounded=0;exitX=1;exitY=1;exitDx=0;exitDy=0;" edge="1" parent="1" source="cPJQanP_NMV2ZF2t2-Fl-72" target="cPJQanP_NMV2ZF2t2-Fl-75">
          <mxGeometry width="50" height="50" relative="1" as="geometry">
            <mxPoint x="440" y="550" as="sourcePoint" />
            <mxPoint x="289.4000000000001" y="491" as="targetPoint" />
          </mxGeometry>
        </mxCell>
        <mxCell id="cPJQanP_NMV2ZF2t2-Fl-77" value="" style="endArrow=classic;html=1;rounded=0;exitX=1;exitY=1;exitDx=0;exitDy=0;entryX=0;entryY=0;entryDx=0;entryDy=0;" edge="1" parent="1" source="cPJQanP_NMV2ZF2t2-Fl-75" target="cPJQanP_NMV2ZF2t2-Fl-78">
          <mxGeometry width="50" height="50" relative="1" as="geometry">
            <mxPoint x="580" y="640" as="sourcePoint" />
            <mxPoint x="240" y="550" as="targetPoint" />
          </mxGeometry>
        </mxCell>
        <mxCell id="cPJQanP_NMV2ZF2t2-Fl-78" value="&lt;font size=&quot;1&quot; style=&quot;&quot; color=&quot;#ffffff&quot; face=&quot;Verdana&quot;&gt;&lt;b style=&quot;font-size: 14px;&quot;&gt;10&lt;/b&gt;&lt;/font&gt;" style="ellipse;whiteSpace=wrap;html=1;aspect=fixed;fillColor=#000000;fontColor=#ffffff;strokeColor=#000000;" vertex="1" parent="1">
          <mxGeometry x="340" y="545" width="40" height="40" as="geometry" />
        </mxCell>
        <mxCell id="cPJQanP_NMV2ZF2t2-Fl-86" value="" style="endArrow=classic;html=1;rounded=0;dashed=1;strokeWidth=2;" edge="1" parent="1">
          <mxGeometry width="50" height="50" relative="1" as="geometry">
            <mxPoint x="11" y="500" as="sourcePoint" />
            <mxPoint x="91" y="500" as="targetPoint" />
          </mxGeometry>
        </mxCell>
        <mxCell id="cPJQanP_NMV2ZF2t2-Fl-87" value="&lt;font style=&quot;font-size: 16px;&quot;&gt;变色&lt;/font&gt;" style="text;html=1;align=center;verticalAlign=middle;resizable=0;points=[];autosize=1;strokeColor=none;fillColor=none;" vertex="1" parent="1">
          <mxGeometry x="16" y="470" width="60" height="30" as="geometry" />
        </mxCell>
        <mxCell id="cPJQanP_NMV2ZF2t2-Fl-88" value="" style="endArrow=classic;html=1;rounded=0;dashed=1;strokeWidth=2;" edge="1" parent="1">
          <mxGeometry width="50" height="50" relative="1" as="geometry">
            <mxPoint x="411" y="500" as="sourcePoint" />
            <mxPoint x="491" y="500" as="targetPoint" />
          </mxGeometry>
        </mxCell>
        <mxCell id="cPJQanP_NMV2ZF2t2-Fl-89" value="&lt;font style=&quot;font-size: 16px;&quot;&gt;parent 左旋&lt;/font&gt;" style="text;html=1;align=center;verticalAlign=middle;resizable=0;points=[];autosize=1;strokeColor=none;fillColor=none;" vertex="1" parent="1">
          <mxGeometry x="391" y="470" width="110" height="30" as="geometry" />
        </mxCell>
        <mxCell id="cPJQanP_NMV2ZF2t2-Fl-99" value="&lt;font size=&quot;1&quot; style=&quot;&quot; color=&quot;#ffffff&quot; face=&quot;Verdana&quot;&gt;&lt;b style=&quot;font-size: 14px;&quot;&gt;6&lt;/b&gt;&lt;/font&gt;" style="ellipse;whiteSpace=wrap;html=1;aspect=fixed;fillColor=#000000;fontColor=#ffffff;strokeColor=#130b0b;" vertex="1" parent="1">
          <mxGeometry x="552" y="472" width="40" height="40" as="geometry" />
        </mxCell>
        <mxCell id="cPJQanP_NMV2ZF2t2-Fl-100" value="&lt;font size=&quot;1&quot; style=&quot;&quot; color=&quot;#ffffff&quot; face=&quot;Verdana&quot;&gt;&lt;b style=&quot;font-size: 14px;&quot;&gt;5&lt;/b&gt;&lt;/font&gt;" style="ellipse;whiteSpace=wrap;html=1;aspect=fixed;fillColor=#000000;" vertex="1" parent="1">
          <mxGeometry x="480" y="534" width="40" height="40" as="geometry" />
        </mxCell>
        <mxCell id="cPJQanP_NMV2ZF2t2-Fl-101" value="" style="endArrow=classic;html=1;rounded=0;exitX=0;exitY=1;exitDx=0;exitDy=0;entryX=1;entryY=0;entryDx=0;entryDy=0;" edge="1" parent="1" source="cPJQanP_NMV2ZF2t2-Fl-99" target="cPJQanP_NMV2ZF2t2-Fl-100">
          <mxGeometry width="50" height="50" relative="1" as="geometry">
            <mxPoint x="799" y="619" as="sourcePoint" />
            <mxPoint x="493.14213562373106" y="554.8578643762689" as="targetPoint" />
          </mxGeometry>
        </mxCell>
        <mxCell id="cPJQanP_NMV2ZF2t2-Fl-102" value="&lt;font face=&quot;Verdana&quot; color=&quot;#ffffff&quot;&gt;&lt;span style=&quot;font-size: 14px;&quot;&gt;&lt;b&gt;9&lt;/b&gt;&lt;/span&gt;&lt;/font&gt;" style="ellipse;whiteSpace=wrap;html=1;aspect=fixed;fillColor=#e51400;fontColor=#ffffff;strokeColor=#B20000;" vertex="1" parent="1">
          <mxGeometry x="626" y="408" width="40" height="40" as="geometry" />
        </mxCell>
        <mxCell id="cPJQanP_NMV2ZF2t2-Fl-104" value="" style="endArrow=classic;html=1;rounded=0;exitX=1;exitY=1;exitDx=0;exitDy=0;entryX=0;entryY=0;entryDx=0;entryDy=0;" edge="1" parent="1" source="cPJQanP_NMV2ZF2t2-Fl-102" target="cPJQanP_NMV2ZF2t2-Fl-105">
          <mxGeometry width="50" height="50" relative="1" as="geometry">
            <mxPoint x="936" y="567" as="sourcePoint" />
            <mxPoint x="596" y="477" as="targetPoint" />
          </mxGeometry>
        </mxCell>
        <mxCell id="cPJQanP_NMV2ZF2t2-Fl-105" value="&lt;font size=&quot;1&quot; style=&quot;&quot; color=&quot;#ffffff&quot; face=&quot;Verdana&quot;&gt;&lt;b style=&quot;font-size: 14px;&quot;&gt;10&lt;/b&gt;&lt;/font&gt;" style="ellipse;whiteSpace=wrap;html=1;aspect=fixed;fillColor=#000000;fontColor=#ffffff;strokeColor=#000000;" vertex="1" parent="1">
          <mxGeometry x="696" y="472" width="40" height="40" as="geometry" />
        </mxCell>
        <mxCell id="cPJQanP_NMV2ZF2t2-Fl-114" value="" style="endArrow=classic;html=1;rounded=0;exitX=0;exitY=1;exitDx=0;exitDy=0;entryX=1;entryY=0;entryDx=0;entryDy=0;" edge="1" parent="1" source="cPJQanP_NMV2ZF2t2-Fl-102" target="cPJQanP_NMV2ZF2t2-Fl-99">
          <mxGeometry width="50" height="50" relative="1" as="geometry">
            <mxPoint x="526" y="559" as="sourcePoint" />
            <mxPoint x="626" y="509" as="targetPoint" />
          </mxGeometry>
        </mxCell>
        <mxCell id="cPJQanP_NMV2ZF2t2-Fl-115" value="&lt;font size=&quot;1&quot; style=&quot;&quot; color=&quot;#ffffff&quot; face=&quot;Verdana&quot;&gt;&lt;b style=&quot;font-size: 14px;&quot;&gt;6&lt;/b&gt;&lt;/font&gt;" style="ellipse;whiteSpace=wrap;html=1;aspect=fixed;fillColor=#0d0c0c;fontColor=#ffffff;strokeColor=#000000;" vertex="1" parent="1">
          <mxGeometry x="-191" y="640" width="40" height="40" as="geometry" />
        </mxCell>
        <mxCell id="cPJQanP_NMV2ZF2t2-Fl-116" value="&lt;font size=&quot;1&quot; style=&quot;&quot; color=&quot;#ffffff&quot; face=&quot;Verdana&quot;&gt;&lt;b style=&quot;font-size: 14px;&quot;&gt;5&lt;/b&gt;&lt;/font&gt;" style="ellipse;whiteSpace=wrap;html=1;aspect=fixed;fillColor=#000000;" vertex="1" parent="1">
          <mxGeometry x="-261" y="711" width="40" height="40" as="geometry" />
        </mxCell>
        <mxCell id="cPJQanP_NMV2ZF2t2-Fl-117" value="" style="endArrow=classic;html=1;rounded=0;exitX=0;exitY=1;exitDx=0;exitDy=0;entryX=1;entryY=0;entryDx=0;entryDy=0;" edge="1" parent="1" source="cPJQanP_NMV2ZF2t2-Fl-115" target="cPJQanP_NMV2ZF2t2-Fl-116">
          <mxGeometry width="50" height="50" relative="1" as="geometry">
            <mxPoint x="58" y="780" as="sourcePoint" />
            <mxPoint x="-247.85786437626894" y="715.8578643762689" as="targetPoint" />
          </mxGeometry>
        </mxCell>
        <mxCell id="cPJQanP_NMV2ZF2t2-Fl-118" value="&lt;font face=&quot;Verdana&quot; color=&quot;#ffffff&quot;&gt;&lt;span style=&quot;font-size: 14px;&quot;&gt;&lt;b&gt;9&lt;/b&gt;&lt;/span&gt;&lt;/font&gt;" style="ellipse;whiteSpace=wrap;html=1;aspect=fixed;fillColor=#090706;fontColor=#ffffff;strokeColor=#000000;" vertex="1" parent="1">
          <mxGeometry x="-112" y="711" width="40" height="40" as="geometry" />
        </mxCell>
        <mxCell id="cPJQanP_NMV2ZF2t2-Fl-119" value="" style="endArrow=classic;html=1;rounded=0;exitX=1;exitY=1;exitDx=0;exitDy=0;" edge="1" parent="1" source="cPJQanP_NMV2ZF2t2-Fl-115" target="cPJQanP_NMV2ZF2t2-Fl-118">
          <mxGeometry width="50" height="50" relative="1" as="geometry">
            <mxPoint x="58" y="780" as="sourcePoint" />
            <mxPoint x="-92.59999999999991" y="721" as="targetPoint" />
          </mxGeometry>
        </mxCell>
        <mxCell id="cPJQanP_NMV2ZF2t2-Fl-120" value="" style="endArrow=classic;html=1;rounded=0;exitX=1;exitY=1;exitDx=0;exitDy=0;entryX=0;entryY=0;entryDx=0;entryDy=0;" edge="1" parent="1" source="cPJQanP_NMV2ZF2t2-Fl-118" target="cPJQanP_NMV2ZF2t2-Fl-121">
          <mxGeometry width="50" height="50" relative="1" as="geometry">
            <mxPoint x="198" y="870" as="sourcePoint" />
            <mxPoint x="-45.142135623731065" y="800.8578643762689" as="targetPoint" />
          </mxGeometry>
        </mxCell>
        <mxCell id="cPJQanP_NMV2ZF2t2-Fl-121" value="&lt;font size=&quot;1&quot; style=&quot;&quot; color=&quot;#ffffff&quot; face=&quot;Verdana&quot;&gt;&lt;b style=&quot;font-size: 14px;&quot;&gt;10&lt;/b&gt;&lt;/font&gt;" style="ellipse;whiteSpace=wrap;html=1;aspect=fixed;fillColor=#e51400;fontColor=#ffffff;strokeColor=#B20000;" vertex="1" parent="1">
          <mxGeometry x="-40" y="780" width="40" height="40" as="geometry" />
        </mxCell>
        <mxCell id="cPJQanP_NMV2ZF2t2-Fl-122" value="" style="endArrow=classic;html=1;rounded=0;dashed=1;strokeWidth=2;" edge="1" parent="1">
          <mxGeometry width="50" height="50" relative="1" as="geometry">
            <mxPoint x="21" y="730" as="sourcePoint" />
            <mxPoint x="101" y="730" as="targetPoint" />
          </mxGeometry>
        </mxCell>
        <mxCell id="cPJQanP_NMV2ZF2t2-Fl-123" value="&lt;font style=&quot;font-size: 16px;&quot;&gt;变色&lt;/font&gt;" style="text;html=1;align=center;verticalAlign=middle;resizable=0;points=[];autosize=1;strokeColor=none;fillColor=none;" vertex="1" parent="1">
          <mxGeometry x="26" y="700" width="60" height="30" as="geometry" />
        </mxCell>
        <mxCell id="cPJQanP_NMV2ZF2t2-Fl-124" value="&lt;font size=&quot;1&quot; style=&quot;&quot; color=&quot;#ffffff&quot; face=&quot;Verdana&quot;&gt;&lt;b style=&quot;font-size: 14px;&quot;&gt;6&lt;/b&gt;&lt;/font&gt;" style="ellipse;whiteSpace=wrap;html=1;aspect=fixed;fillColor=#000000;fontColor=#ffffff;strokeColor=#130b0b;" vertex="1" parent="1">
          <mxGeometry x="201" y="640" width="40" height="40" as="geometry" />
        </mxCell>
        <mxCell id="cPJQanP_NMV2ZF2t2-Fl-125" value="&lt;font size=&quot;1&quot; style=&quot;&quot; color=&quot;#ffffff&quot; face=&quot;Verdana&quot;&gt;&lt;b style=&quot;font-size: 14px;&quot;&gt;5&lt;/b&gt;&lt;/font&gt;" style="ellipse;whiteSpace=wrap;html=1;aspect=fixed;fillColor=#000000;" vertex="1" parent="1">
          <mxGeometry x="131" y="711" width="40" height="40" as="geometry" />
        </mxCell>
        <mxCell id="cPJQanP_NMV2ZF2t2-Fl-126" value="" style="endArrow=classic;html=1;rounded=0;exitX=0;exitY=1;exitDx=0;exitDy=0;entryX=1;entryY=0;entryDx=0;entryDy=0;" edge="1" parent="1" source="cPJQanP_NMV2ZF2t2-Fl-124" target="cPJQanP_NMV2ZF2t2-Fl-125">
          <mxGeometry width="50" height="50" relative="1" as="geometry">
            <mxPoint x="450" y="780" as="sourcePoint" />
            <mxPoint x="144.14213562373106" y="715.8578643762689" as="targetPoint" />
          </mxGeometry>
        </mxCell>
        <mxCell id="cPJQanP_NMV2ZF2t2-Fl-127" value="&lt;font face=&quot;Verdana&quot; color=&quot;#ffffff&quot;&gt;&lt;span style=&quot;font-size: 14px;&quot;&gt;&lt;b&gt;9&lt;/b&gt;&lt;/span&gt;&lt;/font&gt;" style="ellipse;whiteSpace=wrap;html=1;aspect=fixed;fillColor=#150f0e;fontColor=#ffffff;strokeColor=#171616;" vertex="1" parent="1">
          <mxGeometry x="280" y="711" width="40" height="40" as="geometry" />
        </mxCell>
        <mxCell id="cPJQanP_NMV2ZF2t2-Fl-128" value="" style="endArrow=classic;html=1;rounded=0;exitX=1;exitY=1;exitDx=0;exitDy=0;" edge="1" parent="1" source="cPJQanP_NMV2ZF2t2-Fl-124" target="cPJQanP_NMV2ZF2t2-Fl-127">
          <mxGeometry width="50" height="50" relative="1" as="geometry">
            <mxPoint x="450" y="780" as="sourcePoint" />
            <mxPoint x="299.4000000000001" y="721" as="targetPoint" />
          </mxGeometry>
        </mxCell>
        <mxCell id="cPJQanP_NMV2ZF2t2-Fl-129" value="" style="endArrow=classic;html=1;rounded=0;exitX=1;exitY=1;exitDx=0;exitDy=0;entryX=0;entryY=0;entryDx=0;entryDy=0;" edge="1" parent="1" source="cPJQanP_NMV2ZF2t2-Fl-127" target="cPJQanP_NMV2ZF2t2-Fl-130">
          <mxGeometry width="50" height="50" relative="1" as="geometry">
            <mxPoint x="590" y="870" as="sourcePoint" />
            <mxPoint x="250" y="780" as="targetPoint" />
          </mxGeometry>
        </mxCell>
        <mxCell id="cPJQanP_NMV2ZF2t2-Fl-130" value="&lt;font size=&quot;1&quot; style=&quot;&quot; color=&quot;#ffffff&quot; face=&quot;Verdana&quot;&gt;&lt;b style=&quot;font-size: 14px;&quot;&gt;10&lt;/b&gt;&lt;/font&gt;" style="ellipse;whiteSpace=wrap;html=1;aspect=fixed;fillColor=#000000;fontColor=#ffffff;strokeColor=#000000;" vertex="1" parent="1">
          <mxGeometry x="350" y="775" width="40" height="40" as="geometry" />
        </mxCell>
        <mxCell id="cPJQanP_NMV2ZF2t2-Fl-131" value="" style="endArrow=classic;html=1;rounded=0;dashed=1;strokeWidth=2;" edge="1" parent="1">
          <mxGeometry width="50" height="50" relative="1" as="geometry">
            <mxPoint x="21" y="730" as="sourcePoint" />
            <mxPoint x="101" y="730" as="targetPoint" />
          </mxGeometry>
        </mxCell>
        <mxCell id="cPJQanP_NMV2ZF2t2-Fl-132" value="&lt;font style=&quot;font-size: 16px;&quot;&gt;变色&lt;/font&gt;" style="text;html=1;align=center;verticalAlign=middle;resizable=0;points=[];autosize=1;strokeColor=none;fillColor=none;" vertex="1" parent="1">
          <mxGeometry x="26" y="700" width="60" height="30" as="geometry" />
        </mxCell>
        <mxCell id="cPJQanP_NMV2ZF2t2-Fl-133" value="" style="endArrow=classic;html=1;rounded=0;dashed=1;strokeWidth=2;" edge="1" parent="1">
          <mxGeometry width="50" height="50" relative="1" as="geometry">
            <mxPoint x="421" y="730" as="sourcePoint" />
            <mxPoint x="501" y="730" as="targetPoint" />
          </mxGeometry>
        </mxCell>
        <mxCell id="cPJQanP_NMV2ZF2t2-Fl-134" value="&lt;font style=&quot;font-size: 16px;&quot;&gt;parent 左旋&lt;/font&gt;" style="text;html=1;align=center;verticalAlign=middle;resizable=0;points=[];autosize=1;strokeColor=none;fillColor=none;" vertex="1" parent="1">
          <mxGeometry x="401" y="700" width="110" height="30" as="geometry" />
        </mxCell>
        <mxCell id="cPJQanP_NMV2ZF2t2-Fl-135" value="&lt;font size=&quot;1&quot; style=&quot;&quot; color=&quot;#ffffff&quot; face=&quot;Verdana&quot;&gt;&lt;b style=&quot;font-size: 14px;&quot;&gt;6&lt;/b&gt;&lt;/font&gt;" style="ellipse;whiteSpace=wrap;html=1;aspect=fixed;fillColor=#000000;fontColor=#ffffff;strokeColor=#130b0b;" vertex="1" parent="1">
          <mxGeometry x="562" y="702" width="40" height="40" as="geometry" />
        </mxCell>
        <mxCell id="cPJQanP_NMV2ZF2t2-Fl-136" value="&lt;font size=&quot;1&quot; style=&quot;&quot; color=&quot;#ffffff&quot; face=&quot;Verdana&quot;&gt;&lt;b style=&quot;font-size: 14px;&quot;&gt;5&lt;/b&gt;&lt;/font&gt;" style="ellipse;whiteSpace=wrap;html=1;aspect=fixed;fillColor=#000000;" vertex="1" parent="1">
          <mxGeometry x="490" y="764" width="40" height="40" as="geometry" />
        </mxCell>
        <mxCell id="cPJQanP_NMV2ZF2t2-Fl-137" value="" style="endArrow=classic;html=1;rounded=0;exitX=0;exitY=1;exitDx=0;exitDy=0;entryX=1;entryY=0;entryDx=0;entryDy=0;" edge="1" parent="1" source="cPJQanP_NMV2ZF2t2-Fl-135" target="cPJQanP_NMV2ZF2t2-Fl-136">
          <mxGeometry width="50" height="50" relative="1" as="geometry">
            <mxPoint x="809" y="849" as="sourcePoint" />
            <mxPoint x="503.14213562373106" y="784.8578643762689" as="targetPoint" />
          </mxGeometry>
        </mxCell>
        <mxCell id="cPJQanP_NMV2ZF2t2-Fl-138" value="&lt;font face=&quot;Verdana&quot; color=&quot;#ffffff&quot;&gt;&lt;span style=&quot;font-size: 14px;&quot;&gt;&lt;b&gt;9&lt;/b&gt;&lt;/span&gt;&lt;/font&gt;" style="ellipse;whiteSpace=wrap;html=1;aspect=fixed;fillColor=#000000;fontColor=#ffffff;strokeColor=#000000;" vertex="1" parent="1">
          <mxGeometry x="636" y="638" width="40" height="40" as="geometry" />
        </mxCell>
        <mxCell id="cPJQanP_NMV2ZF2t2-Fl-139" value="" style="endArrow=classic;html=1;rounded=0;exitX=1;exitY=1;exitDx=0;exitDy=0;entryX=0;entryY=0;entryDx=0;entryDy=0;" edge="1" parent="1" source="cPJQanP_NMV2ZF2t2-Fl-138" target="cPJQanP_NMV2ZF2t2-Fl-140">
          <mxGeometry width="50" height="50" relative="1" as="geometry">
            <mxPoint x="946" y="797" as="sourcePoint" />
            <mxPoint x="606" y="707" as="targetPoint" />
          </mxGeometry>
        </mxCell>
        <mxCell id="cPJQanP_NMV2ZF2t2-Fl-140" value="&lt;font size=&quot;1&quot; style=&quot;&quot; color=&quot;#ffffff&quot; face=&quot;Verdana&quot;&gt;&lt;b style=&quot;font-size: 14px;&quot;&gt;10&lt;/b&gt;&lt;/font&gt;" style="ellipse;whiteSpace=wrap;html=1;aspect=fixed;fillColor=#000000;fontColor=#ffffff;strokeColor=#000000;" vertex="1" parent="1">
          <mxGeometry x="706" y="702" width="40" height="40" as="geometry" />
        </mxCell>
        <mxCell id="cPJQanP_NMV2ZF2t2-Fl-141" value="" style="endArrow=classic;html=1;rounded=0;exitX=0;exitY=1;exitDx=0;exitDy=0;entryX=1;entryY=0;entryDx=0;entryDy=0;" edge="1" parent="1" source="cPJQanP_NMV2ZF2t2-Fl-138" target="cPJQanP_NMV2ZF2t2-Fl-135">
          <mxGeometry width="50" height="50" relative="1" as="geometry">
            <mxPoint x="536" y="789" as="sourcePoint" />
            <mxPoint x="636" y="739" as="targetPoint" />
          </mxGeometry>
        </mxCell>
      </root>
    </mxGraphModel>
  </diagram>
</mxfile>
